<svg width="776" height="137" viewBox="0 0 776 137" fill="none" xmlns="http://www.w3.org/2000/svg">
<g clip-path="url(#clip0_36_138)">
<path d="M227.18 115.325C220.018 115.325 213.627 114.19 208.007 112.009C202.386 109.783 197.627 106.558 193.729 102.334C189.831 98.1093 186.884 92.9764 184.845 86.935C182.805 80.8936 181.762 74.0345 181.762 66.267C181.762 58.4995 182.805 52.6397 184.935 46.9163C187.066 41.1928 190.148 36.3325 194.182 32.3351C198.216 28.3378 203.111 25.249 208.959 23.0232C214.76 20.7974 221.333 19.6618 228.676 19.5255C231.486 19.5255 234.296 19.7981 237.107 20.2977C239.917 20.7974 242.637 21.5242 245.175 22.4781C247.758 23.432 250.07 24.613 252.201 25.9757C253.651 26.8842 254.829 27.7927 255.736 28.6103C256.643 29.4734 257.141 30.291 257.232 30.9724C257.413 31.4266 257.413 31.9717 257.232 32.6077C257.051 33.2436 256.779 33.8341 256.416 34.3792C256.053 34.9243 255.6 35.3786 255.056 35.6965C254.512 36.0145 253.923 36.1508 253.288 36.1508C252.654 36.1508 252.608 35.9236 251.793 35.4694C250.977 35.0152 249.934 34.3792 248.665 33.5616C246.852 32.3806 244.812 31.3812 242.637 30.4727C240.416 29.6097 238.059 28.9737 235.611 28.5195C233.163 28.0653 230.67 27.8381 228.132 27.8381C220.245 27.8381 213.446 29.3826 207.735 32.4714C202.024 35.5602 197.627 40.0118 194.59 45.8261C191.553 51.6404 189.967 58.6357 189.921 66.8121C190.012 75.261 191.553 82.4834 194.59 88.4794C197.627 94.4754 201.933 99.1087 207.599 102.288C213.219 105.513 219.928 107.149 227.724 107.149C235.52 107.149 232.846 106.922 235.475 106.467C238.104 106.013 240.687 105.377 243.226 104.56C245.764 103.742 248.166 102.743 250.433 101.562V70.3552H222.013C221.016 70.3552 220.2 70.2643 219.565 69.9918C218.931 69.7647 218.477 69.3558 218.205 68.7653C217.933 68.1748 217.797 67.4026 217.797 66.4033C217.797 65.4039 217.933 64.4954 218.205 63.9049C218.477 63.3144 218.885 62.9056 219.52 62.6331C220.109 62.3605 220.88 62.2242 221.877 62.2242H253.424C254.603 62.2242 255.555 62.4514 256.28 62.8148C257.005 63.2236 257.594 63.8141 258.002 64.5409C258.41 65.2677 258.637 66.2216 258.637 67.4026V102.833C258.637 103.924 257.957 105.059 256.597 106.24C255.237 107.421 253.243 108.648 250.614 109.92C248.62 110.919 246.353 111.827 243.815 112.645C241.277 113.463 238.602 114.099 235.792 114.598C232.982 115.098 230.126 115.371 227.225 115.371L227.18 115.325Z" fill="black"/>
<path d="M278.717 115.461C277.81 115.461 277.085 115.325 276.541 115.053C275.997 114.78 275.589 114.326 275.408 113.69C275.181 113.054 275.045 112.236 275.045 111.237V54.4113C275.045 53.3211 275.136 52.5035 275.408 51.8675C275.635 51.277 275.997 50.9136 276.541 50.7319C277.085 50.5502 277.856 50.4594 278.853 50.4594C279.85 50.4594 280.485 50.5502 281.074 50.7319C281.663 50.9136 282.071 51.3225 282.388 51.8675C282.66 52.4581 282.796 53.3211 282.796 54.4113V60.1347C283.703 58.5903 284.609 57.1822 285.516 55.9103C286.422 54.6384 287.51 53.5482 288.779 52.5489C290.048 51.595 291.59 50.8228 293.493 50.3231C295.352 49.778 297.663 49.5055 300.474 49.5055C303.284 49.5055 303.284 49.6418 304.508 49.9143C305.732 50.1869 306.865 50.5503 307.907 51.0045C308.95 51.4587 309.811 51.9584 310.536 52.5035C311.262 53.0486 311.805 53.5937 312.168 54.1388C312.531 54.6838 312.712 55.2289 312.712 55.774C312.712 56.9551 312.213 57.9544 311.216 58.772C310.219 59.5897 309.312 59.9985 308.497 59.9985C307.681 59.9985 306.729 59.8622 306.23 59.5442C305.732 59.2263 305.233 58.8629 304.689 58.3632C304.145 57.909 303.329 57.5456 302.241 57.2276C301.154 56.9096 299.476 56.7734 297.21 56.7734C294.944 56.7734 294.355 57.0913 292.723 57.6818C291.091 58.2724 289.55 59.1808 288.054 60.3165C286.558 61.4975 285.289 63.0419 284.337 64.9497C283.34 66.8575 282.842 69.1287 282.842 71.7633V111.555C282.842 112.554 282.706 113.372 282.479 113.917C282.252 114.507 281.844 114.916 281.255 115.143C280.666 115.371 279.805 115.507 278.717 115.507V115.461Z" fill="black"/>
<path d="M354.413 115.734C349.427 115.734 344.849 114.916 340.769 113.281C336.645 111.646 333.109 109.329 330.163 106.331C327.217 103.333 324.95 99.7901 323.319 95.7019C321.687 91.6137 320.871 87.0713 320.871 82.0746C320.871 77.078 322.276 70.8549 325.086 66.1307C327.897 61.4066 331.795 57.6818 336.781 54.8656C341.767 52.0947 347.478 50.6865 353.914 50.6865C360.351 50.6865 361.892 51.3225 365.337 52.5943C368.781 53.8662 371.773 55.5923 374.311 57.7727C376.85 59.9531 378.799 62.4514 380.204 65.2677C381.609 68.084 382.289 70.9911 382.289 73.9891C382.289 78.4407 381.292 81.4841 379.207 83.074C377.167 84.6638 374.674 85.436 371.818 85.436H328.984C328.803 90.251 329.982 94.3846 332.611 97.8368C335.194 101.289 338.458 103.969 342.401 105.831C346.345 107.694 350.288 108.602 354.277 108.602C358.266 108.602 359.172 108.466 361.167 108.194C363.116 107.921 364.793 107.558 366.198 107.013C367.603 106.513 368.781 106.013 369.824 105.514C370.821 105.014 371.728 104.514 372.544 104.015C373.359 103.515 374.13 103.106 374.855 102.879C375.309 102.697 375.807 102.652 376.442 102.652C377.031 102.697 377.439 102.97 377.756 103.424C378.209 104.06 378.527 104.65 378.708 105.15C378.889 105.65 378.98 106.24 378.98 106.876C378.98 107.512 377.892 108.829 375.716 110.192C373.541 111.6 370.594 112.872 366.878 114.008C363.161 115.143 359.036 115.734 354.503 115.734H354.413ZM329.03 78.9404H369.552C371.365 78.9404 372.77 78.7132 373.767 78.3044C374.765 77.8956 375.263 76.5783 375.263 74.3071C375.263 72.0359 374.311 68.5836 372.453 66.0399C370.594 63.5416 368.056 61.5429 364.929 59.9985C361.756 58.4541 358.13 57.6818 354.05 57.6818C349.971 57.6818 345.302 58.5903 341.449 60.4073C337.597 62.2243 334.514 64.768 332.293 67.9931C330.027 71.2183 328.939 74.8976 329.03 78.9858V78.9404Z" fill="black"/>
<path d="M424.035 115.734C419.049 115.734 414.471 114.916 410.392 113.281C406.267 111.646 402.731 109.329 399.785 106.331C396.839 103.333 394.572 99.7901 392.941 95.7019C391.309 91.6137 390.493 87.0713 390.493 82.0746C390.493 77.078 391.898 70.8549 394.708 66.1307C397.519 61.4066 401.417 57.6818 406.403 54.8656C411.389 52.0947 417.1 50.6865 423.536 50.6865C429.973 50.6865 431.514 51.3225 434.959 52.5943C438.404 53.8662 441.395 55.5923 443.933 57.7727C446.472 59.9531 448.421 62.4514 449.826 65.2677C451.231 68.084 451.911 70.9911 451.911 73.9891C451.911 78.4407 450.914 81.4841 448.829 83.074C446.789 84.6638 444.296 85.436 441.441 85.436H398.607C398.425 90.251 399.604 94.3846 402.233 97.8368C404.816 101.289 408.08 103.969 412.023 105.831C415.967 107.694 419.91 108.602 423.899 108.602C427.888 108.602 428.794 108.466 430.789 108.194C432.738 107.921 434.415 107.558 435.82 107.013C437.225 106.513 438.404 106.013 439.446 105.514C440.443 105.014 441.35 104.514 442.166 104.015C442.982 103.515 443.752 103.106 444.477 102.879C444.931 102.697 445.429 102.652 446.064 102.652C446.653 102.697 447.061 102.97 447.378 103.424C447.832 104.06 448.149 104.65 448.33 105.15C448.512 105.65 448.602 106.24 448.602 106.876C448.602 107.512 447.514 108.829 445.339 110.192C443.163 111.6 440.217 112.872 436.5 114.008C432.783 115.143 428.658 115.734 424.126 115.734H424.035ZM398.607 78.9404H439.129C440.942 78.9404 442.347 78.7132 443.344 78.3044C444.341 77.8956 444.84 76.5783 444.84 74.3071C444.84 72.0359 443.888 68.5836 442.03 66.0399C440.171 63.5416 437.633 61.5429 434.505 59.9985C431.333 58.4541 427.706 57.6818 423.627 57.6818C419.548 57.6818 414.879 58.5903 411.026 60.4073C407.173 62.2243 404.091 64.768 401.87 67.9931C399.604 71.2183 398.516 74.8976 398.607 78.9858V78.9404Z" fill="black"/>
<path d="M467.821 115.325C466.914 115.325 466.189 115.189 465.645 114.916C465.101 114.644 464.693 114.19 464.512 113.644C464.285 113.054 464.149 112.282 464.149 111.282V54.0479C464.149 53.1395 464.24 52.4581 464.512 51.913C464.739 51.4133 465.146 51.0499 465.736 50.8228C466.325 50.5957 467.05 50.4594 468.002 50.4594C468.954 50.4594 469.181 50.5049 469.634 50.6866C470.087 50.8228 470.45 51.0499 470.722 51.2771C470.994 51.5496 471.175 51.913 471.311 52.3673C471.447 52.8215 471.538 53.3666 471.538 54.0025V62.0426C472.716 60.4982 474.031 59.0446 475.481 57.591C476.931 56.1829 478.563 54.911 480.286 53.7754C482.053 52.6398 484.002 51.7767 486.133 51.1408C488.263 50.5049 490.62 50.1869 493.294 50.1869C497.193 50.1869 500.773 50.8683 504.082 52.1856C507.391 53.5029 510.292 55.4107 512.694 57.909C515.142 60.4073 517.046 63.4508 518.406 67.0393C519.765 70.6278 520.445 74.7159 520.445 79.3492V111.373C520.445 112.373 520.309 113.19 520.083 113.735C519.856 114.326 519.448 114.735 518.95 114.962C518.406 115.189 517.635 115.325 516.638 115.325C515.641 115.325 514.825 115.189 514.281 114.916C513.692 114.644 513.284 114.19 513.057 113.644C512.83 113.054 512.694 112.282 512.694 111.282V79.2584C512.694 74.8068 511.969 70.9457 510.519 67.6752C509.068 64.4047 506.893 61.8609 503.992 60.0439C501.091 58.227 497.419 57.3185 492.977 57.3185C488.535 57.3185 484.864 58.227 481.691 60.0439C478.518 61.8609 476.07 64.4047 474.348 67.6752C472.625 70.9457 471.764 74.8068 471.764 79.2584V111.419C471.764 112.418 471.628 113.236 471.402 113.781C471.175 114.371 470.767 114.78 470.178 115.007C469.588 115.234 468.773 115.371 467.821 115.371V115.325Z" fill="black"/>
<path d="M540.027 115.461C539.029 115.461 538.213 115.325 537.67 115.053C537.08 114.78 536.672 114.326 536.446 113.69C536.219 113.054 536.083 112.236 536.083 111.237V24.4313C536.083 23.5228 536.219 22.796 536.536 22.1601C536.854 21.5696 537.307 21.1154 537.987 20.7974C538.621 20.4794 539.347 20.3431 540.163 20.3431H570.758C575.382 20.3431 579.461 21.0245 583.087 22.2964C586.668 23.6137 589.705 25.5669 592.198 28.1561C594.691 30.7453 596.595 33.8795 597.909 37.4681C599.224 41.102 599.903 45.2356 599.903 49.8689C599.903 54.5021 599.224 58.6357 597.909 62.2242C596.595 65.8127 594.645 68.9016 592.107 71.3999C589.569 73.8982 586.487 75.8969 582.951 77.2142C579.37 78.5315 575.291 79.1675 570.668 79.1675H544.287V111.328C544.287 112.327 544.151 113.145 543.879 113.69C543.607 114.28 543.154 114.689 542.61 115.007C542.021 115.28 541.16 115.416 540.117 115.416L540.027 115.461ZM544.242 71.0365H570.758C575.2 71.0365 579.008 70.2189 582.09 68.5382C585.218 66.8575 587.62 64.4046 589.297 61.1795C590.974 57.9544 591.79 54.1387 591.79 49.6872C591.79 45.2356 590.929 41.42 589.297 38.2857C587.62 35.1514 585.172 32.7439 582.045 31.0632C578.872 29.3826 575.064 28.5649 570.622 28.5649H544.242V71.0819V71.0365Z" fill="black"/>
<path d="M641.604 116.006C637.072 116.006 632.811 115.143 628.822 113.417C624.833 111.691 621.298 109.329 618.306 106.331C615.269 103.333 612.867 99.8354 611.144 95.8381C609.422 91.8408 608.561 87.5709 608.561 83.0285C608.561 78.4861 609.377 74.0799 611.054 70.128C612.731 66.1761 615.088 62.6785 618.125 59.635C621.162 56.5916 624.652 54.2296 628.595 52.5489C632.539 50.8682 636.754 50.0505 641.287 50.0505C645.82 50.0505 652.845 51.5041 657.741 54.3658C662.636 57.2276 666.534 61.134 669.435 66.0853C672.336 71.0365 673.786 76.6237 673.786 82.8922C673.786 89.1608 672.925 91.9771 671.293 95.9744C669.616 99.9717 667.305 103.469 664.358 106.467C661.412 109.465 657.967 111.827 654.069 113.508C650.171 115.189 646.001 116.006 641.559 116.006H641.604ZM641.332 108.648C645.956 108.648 650.126 107.512 653.933 105.195C657.695 102.879 660.687 99.7446 662.908 95.7927C665.129 91.8408 666.262 87.4801 666.262 82.6197C666.262 77.7593 665.174 73.3531 662.999 69.5375C660.823 65.7219 657.831 62.7693 654.069 60.5889C650.307 58.454 646.001 57.4093 641.242 57.4093C636.482 57.4093 632.267 58.5449 628.55 60.7252C624.788 62.951 621.796 65.9944 619.575 69.8101C617.354 73.6257 616.221 77.941 616.221 82.7559C616.221 87.5709 617.309 92.0679 619.575 95.9744C621.796 99.8809 624.788 102.97 628.595 105.241C632.403 107.512 636.664 108.648 641.378 108.648H641.332Z" fill="black"/>
<path d="M706.331 114.78C705.515 114.78 704.835 114.689 704.337 114.507C703.838 114.326 703.475 114.053 703.204 113.599C702.932 113.19 702.705 112.645 702.524 111.873L680.495 55.1835C680.132 54.1842 679.951 53.412 680.041 52.8215C680.041 52.2309 680.359 51.7313 680.857 51.2316C681.356 50.7774 682.036 50.414 682.942 50.1414C684.483 49.6872 685.617 49.5963 686.297 49.8689C686.976 50.1414 687.566 51.0045 688.11 52.4581L706.467 100.971L723.465 52.8669C723.737 52.1401 724.009 51.5496 724.371 51.0953C724.688 50.6411 725.096 50.3231 725.64 50.096C726.184 49.8689 726.864 49.7326 727.68 49.7326C728.496 49.7326 729.266 49.8689 729.81 50.096C730.309 50.3231 730.717 50.6411 731.08 51.0499C731.442 51.4587 731.714 52.0038 731.895 52.6398L748.893 101.425L767.25 52.776C767.885 51.1408 768.565 50.1414 769.381 49.778C770.151 49.4146 771.285 49.4601 772.871 49.9143C774.14 50.2777 774.956 50.8682 775.319 51.6404C775.681 52.4126 775.545 53.5937 774.911 55.2744L752.882 112.1C752.701 112.736 752.429 113.236 752.157 113.69C751.839 114.099 751.431 114.371 750.933 114.598C750.434 114.78 749.8 114.871 749.12 114.871C748.44 114.871 747.76 114.78 747.261 114.598C746.763 114.417 746.355 114.053 746.037 113.599C745.72 113.099 745.403 112.509 745.131 111.782L727.725 61.3612L710.32 111.782C710.048 112.509 709.731 113.145 709.413 113.599C709.096 114.099 708.688 114.417 708.189 114.598C707.691 114.78 707.056 114.871 706.376 114.871L706.331 114.78Z" fill="black"/>
<path d="M104.208 0.901611H32.5008C14.8273 0.901611 0.5 15.2596 0.5 32.9711V104.832C0.5 122.544 14.8273 136.902 32.5008 136.902H104.208C121.882 136.902 136.209 122.544 136.209 104.832V32.9711C136.209 15.2596 121.882 0.901611 104.208 0.901611Z" fill="#002744"/>
<path d="M118.078 98.4728C118.078 98.4273 118.078 98.3819 118.078 98.3365C118.078 98.2911 118.078 98.2002 118.033 98.1548C118.033 98.1094 117.987 98.0185 117.942 97.9731C117.942 97.9277 117.897 97.8822 117.851 97.8368C117.851 97.7914 117.761 97.746 117.715 97.7006C117.715 97.7006 117.625 97.6097 117.579 97.5643C117.534 97.5643 117.443 97.4734 117.398 97.4734C117.398 97.4734 117.307 97.428 117.262 97.3826C98.6781 89.7513 85.1707 79.44 72.1165 62.9965C69.5329 59.7259 66.7226 55.5015 63.7764 51.0954C55.6628 38.8308 46.4615 24.9764 35.1297 20.5249C26.019 16.9818 18.0868 23.2503 11.1065 28.7467C8.65881 30.6999 6.30181 32.5623 4.03546 33.8796C2.85696 34.5609 1.67846 35.1969 0.545288 35.6966V38.8762C1.36117 38.5128 2.22238 38.1495 3.0836 37.7406C2.22238 38.9217 1.36117 40.1481 0.545288 41.42V47.9611C2.40369 47.0072 4.30742 46.0987 6.25648 45.3719C7.52564 44.8722 8.84012 44.5088 10.1093 44.2817C9.74666 45.0539 9.38404 45.7807 9.06675 46.5529L8.11489 48.5516C5.80321 53.4574 3.44621 58.4541 0.545288 63.0419V68.5382C0.862577 68.5382 1.17987 68.5382 1.49715 68.6291C6.39246 69.4013 10.9252 71.3091 15.2765 74.3525C14.2794 75.7607 13.1915 77.1234 12.013 78.3953C8.9761 81.6204 5.39527 83.4374 1.58781 84.8001C1.45183 84.7092 1.36117 84.573 1.22519 84.4821C1.17987 84.4367 1.08921 84.3458 1.04388 84.3004C0.907904 84.2096 0.771923 84.1187 0.590615 84.0279V88.2523C0.726596 88.2069 0.907904 88.1615 1.04388 88.1161C1.31585 88.2978 1.58781 88.4794 1.85977 88.6611C2.17706 88.8883 2.53967 89.1154 2.90229 89.3425C6.93639 92.7039 10.6079 96.247 14.098 99.6992C15.2312 100.835 16.4097 101.97 17.5882 103.106C16.9536 103.333 16.3191 103.56 15.6845 103.742C14.1887 104.196 12.6476 104.605 11.1518 105.014C8.56816 105.695 5.84854 106.377 3.2649 107.467C2.76631 107.648 2.31304 107.876 1.85977 108.103C1.45183 107.694 1.04388 107.24 0.635942 106.831C0.726596 108.512 0.953231 110.147 1.27052 111.737C2.04108 112.554 2.85696 113.372 3.62752 114.19C8.34152 119.05 12.8742 123.32 17.3163 127.09C15.7751 128.089 14.2794 129.18 12.8289 130.315C13.6448 130.951 14.4607 131.542 15.3219 132.087C16.727 131.042 18.2228 129.997 19.6733 129.043C23.3901 132.041 27.1069 134.721 30.869 137.129C31.4583 137.129 32.0022 137.174 32.5914 137.174H36.5349C36.3989 137.083 36.2629 136.992 36.1269 136.947C31.4583 134.222 26.8802 131.087 22.2569 127.408C25.4298 125.5 28.648 123.683 31.8209 121.957C33.8153 120.867 35.8096 119.777 37.7587 118.641C42.3821 121.367 47.1414 123.774 51.8554 125.954C47.0054 129.679 42.1101 133.449 37.2148 137.174H42.0194C46.3255 133.904 50.6316 130.588 54.8923 127.317C59.6516 129.407 64.3656 131.314 68.8983 133.131C67.1306 134.494 65.3628 135.811 63.5951 137.174H68.717L70.8927 135.539C70.938 136.084 71.0287 136.629 71.074 137.174H74.0203C73.8843 135.948 73.7483 134.721 73.6123 133.449L85.7599 124.183C86.2132 128.453 86.7118 132.768 87.1651 137.129H93.1029C95.5959 135.13 98.0435 133.131 100.582 131.133C100.582 131.905 100.582 132.677 100.582 133.449C100.582 134.676 100.582 135.902 100.582 137.129H103.483C103.483 135.902 103.483 134.676 103.483 133.449C103.483 131.95 103.483 130.406 103.483 128.862C107.2 126.045 110.962 123.274 114.86 120.594C114.679 122.866 114.497 125.091 114.316 127.317C114.089 130.088 113.863 132.859 113.681 135.675C114.724 135.357 115.721 134.994 116.673 134.585C116.854 132.223 117.036 129.906 117.217 127.59C117.987 118.096 118.849 108.239 118.123 98.6999L118.078 98.4728ZM97.6356 90.4781C93.3749 93.7032 89.1141 96.9738 84.8987 100.244C80.638 97.9277 76.4679 95.3385 72.4791 92.4768C71.5273 91.7954 70.5754 91.0686 69.6689 90.2964C73.4763 86.0265 77.4651 81.7567 81.7712 77.9865C86.7571 82.756 91.9697 86.8896 97.6356 90.4781ZM37.3054 92.3859C41.5208 87.2076 44.8297 81.3479 47.9573 75.6244C48.4105 74.8068 48.8638 73.9891 49.3171 73.1715C49.4077 73.2624 49.4984 73.3986 49.5437 73.4895C55.0283 80.4848 60.1502 86.0265 65.4081 90.569C65.2722 90.7052 65.1815 90.8415 65.0455 90.9778C60.8754 95.6565 56.5694 100.517 51.9007 104.787C46.7334 101.607 41.7928 97.6097 36.9428 92.7947C37.0335 92.6585 37.1695 92.5222 37.2601 92.3859H37.3054ZM35.0844 90.5235C35.0844 90.569 34.9938 90.6144 34.9484 90.6598C32.1382 87.6618 29.3279 84.3913 26.5176 80.7573C26.5176 80.7573 26.5176 80.7573 26.5176 80.7119C24.1606 77.941 21.7583 75.5336 19.22 73.5349C21.0331 70.6732 22.6648 67.7206 24.2513 64.768L24.3419 64.6318C26.2457 61.0887 27.9681 57.4093 29.5999 53.8208C29.9625 53.0032 30.3704 52.1401 30.7784 51.3225C30.9597 51.5042 31.141 51.6404 31.3223 51.8221C36.8975 56.6825 41.4755 62.7694 45.9176 68.5837C46.4615 69.265 46.9601 69.9918 47.504 70.6732C47.368 70.9003 47.232 71.1728 47.0961 71.4C46.5975 72.3084 46.0535 73.2624 45.5549 74.1708C42.4274 79.758 39.2545 85.5269 35.1751 90.4781L35.0844 90.5235ZM67.3119 92.931C67.4478 92.7947 67.5838 92.6131 67.7198 92.4768C68.717 93.2944 69.7595 94.0666 70.7567 94.8388C74.4735 97.5643 78.3716 99.9718 82.3604 102.198C77.7824 105.695 73.2497 109.193 68.7623 112.645C65.4535 111.373 62.1446 110.056 58.9717 108.602C57.4759 107.921 56.0255 107.149 54.575 106.331C59.1077 102.107 63.2778 97.4734 67.3119 92.931ZM69.7595 64.6318C73.0231 68.7199 76.2866 72.4901 79.6861 75.897C75.2894 79.758 71.2553 84.0733 67.4025 88.3886C62.2806 83.937 57.2493 78.5316 51.8554 71.6725C51.5381 71.2637 51.2208 70.8549 50.9035 70.4006C52.5806 67.4935 54.1217 65.086 55.6628 62.8602C55.9348 62.4514 56.2068 62.0426 56.4787 61.6338C58.3371 58.9083 60.1049 56.3191 62.5979 54.4567C65.0908 58.2269 67.4932 61.7246 69.7595 64.6318ZM61.0114 52.0493C58.1105 54.2296 56.0708 57.1822 54.1217 60.0439C53.8498 60.4527 53.5778 60.8615 53.3058 61.2249C51.9007 63.269 50.5409 65.404 49.0451 67.9477C48.7732 67.5843 48.4559 67.1755 48.1839 66.8121C43.6512 60.8615 38.9825 54.6839 33.1807 49.5963C32.7727 49.233 32.3648 48.915 32.0022 48.597C35.2204 41.8742 38.8466 35.2877 44.1951 30.0185C50.3596 35.9691 55.9348 44.2817 61.0568 52.0493H61.0114ZM34.0419 23.0686C36.8068 24.1588 39.4358 25.8849 42.0194 28.0199C36.5802 33.4708 32.8634 40.0573 29.6452 46.7346C24.7045 43.1915 19.7639 41.2383 14.8686 40.9203C18.1775 34.243 21.9396 27.7019 27.1522 22.4781C29.4185 22.0239 31.6849 22.1147 34.0419 23.0232V23.0686ZM5.16864 42.4648C4.21677 42.8281 3.31023 43.1915 2.40369 43.6004C5.21396 39.1942 8.38685 35.0152 12.1943 31.4721C12.285 31.3813 12.3756 31.245 12.4663 31.1541C12.6023 31.0633 12.6929 30.9724 12.8289 30.8816C15.5485 28.7467 18.2681 26.5663 21.0784 24.9764C17.2256 29.8823 14.2794 35.424 11.5597 41.0112C9.42937 41.1929 7.299 41.6925 5.16864 42.4648ZM2.22238 65.6311C5.53125 60.589 8.16021 55.0473 10.6985 49.6418L11.6504 47.6431C12.2396 46.3712 12.8289 45.0994 13.4635 43.8729C18.3588 43.8729 23.2994 45.7353 28.376 49.5055C27.8774 50.5503 27.4242 51.595 26.9256 52.6398C25.2938 56.1829 23.6167 59.8168 21.7583 63.269L21.6676 63.4053C20.1719 66.2216 18.5854 69.0833 16.863 71.8088C12.285 68.5837 7.38966 66.5396 2.26771 65.6765L2.22238 65.6311ZM16.0471 97.3372C12.4663 93.8395 8.79479 90.2056 4.62471 86.7988C4.62471 86.7988 4.53406 86.7533 4.53406 86.7079C4.48873 86.7079 4.4434 86.6625 4.39808 86.6171C7.84293 85.2089 11.1518 83.3011 14.0527 80.2122C15.3219 78.8495 16.5004 77.4414 17.5429 75.9424C19.8546 77.8048 22.0756 80.0305 24.2513 82.6197C27.1522 86.3899 30.0985 89.8422 33.0447 92.931C29.5092 96.6558 25.3391 99.5629 20.5345 101.698C19.0387 100.244 17.5429 98.8362 16.0924 97.3826L16.0471 97.3372ZM30.3704 119.141C26.8802 121.094 23.2994 123.047 19.8092 125.228C15.1859 121.367 10.5172 117.006 5.62191 111.964C5.03266 111.373 4.48873 110.783 3.89948 110.147C4.03546 110.101 4.17144 110.011 4.35275 109.965C6.70975 108.966 9.20273 108.33 11.8317 107.648C13.3728 107.24 14.9593 106.831 16.5457 106.331C17.7242 105.968 18.8574 105.559 19.9452 105.105C21.713 106.785 23.5714 108.421 25.5658 110.056C28.6027 112.463 31.7756 114.644 34.9484 116.642C33.4526 117.506 31.9569 118.323 30.4611 119.141H30.3704ZM27.3335 107.739C25.7924 106.467 24.2513 105.15 22.8008 103.787C27.4695 101.562 31.5036 98.609 35.0391 94.9297C39.7984 99.6538 44.6031 103.56 49.6797 106.785C45.9629 109.874 41.9288 112.509 37.7587 114.962C34.2232 112.781 30.733 110.374 27.3335 107.739ZM54.439 123.683C49.7703 121.594 45.147 119.277 40.6143 116.688C44.6031 114.28 48.4559 111.691 52.0367 108.648C52.1273 108.557 52.218 108.512 52.3087 108.421C54.0764 109.465 55.9348 110.419 57.7932 111.282C60.5128 112.509 63.3231 113.644 66.088 114.735C65.8614 114.916 65.5894 115.098 65.3628 115.28C61.7367 118.051 58.1105 120.867 54.439 123.683ZM71.5273 130.815C66.8586 128.952 62.1446 127.09 57.4306 125.046C60.6488 122.548 63.9123 120.049 67.0852 117.596C67.8105 117.051 68.4904 116.506 69.2156 115.961C70.6661 116.506 72.1618 117.097 73.6123 117.642C76.9665 118.914 80.366 120.186 83.7202 121.548C79.6408 124.637 75.5614 127.726 71.4819 130.815H71.5273ZM74.6548 114.871C73.7483 114.553 72.8418 114.19 71.9352 113.826C76.2866 110.465 80.7286 107.058 85.1254 103.651C89.658 106.013 94.2361 108.148 98.7234 110.147C94.5987 113.236 90.5193 116.324 86.4398 119.459C82.5417 117.823 78.5076 116.324 74.6548 114.871ZM89.8847 135.721C89.3861 131.042 88.8875 126.454 88.3889 121.912L100.174 112.963C100.446 117.687 100.537 122.502 100.537 127.272C96.9104 130.043 93.3749 132.904 89.8847 135.766V135.721ZM87.709 101.743C91.8791 98.5182 96.0945 95.2931 100.31 92.1134C104.525 94.6117 108.967 96.8829 113.727 98.9724C109.602 102.061 105.522 105.105 101.443 108.194C96.9104 106.195 92.287 104.105 87.709 101.743ZM115.086 116.688C111.098 119.368 107.245 122.139 103.437 125C103.437 120.276 103.256 115.507 102.939 110.828L115.358 101.38C115.585 106.422 115.404 111.555 115.086 116.688Z" fill="white"/>
</g>
<defs>
<clipPath id="clip0_36_138">
<rect width="775" height="136" fill="white" transform="translate(0.5 0.901611)"/>
</clipPath>
</defs>
</svg>
