<svg width="776" height="137" viewBox="0 0 776 137" fill="none" xmlns="http://www.w3.org/2000/svg">
<g clip-path="url(#clip0_36_274)">
<path d="M227.18 115.325C220.018 115.325 213.627 114.19 208.007 112.009C202.386 109.783 197.627 106.558 193.729 102.334C189.831 98.1095 186.884 92.9765 184.845 86.9351C182.805 80.8937 181.762 74.0346 181.762 66.2671C181.762 58.4996 182.805 52.6399 184.935 46.9164C187.066 41.193 190.148 36.3326 194.182 32.3353C198.216 28.3379 203.111 25.2491 208.959 23.0233C214.76 20.7975 221.333 19.6619 228.676 19.5256C231.486 19.5256 234.296 19.7982 237.107 20.2978C239.917 20.7975 242.637 21.5243 245.175 22.4782C247.758 23.4321 250.07 24.6131 252.201 25.9759C253.651 26.8844 254.829 27.7928 255.736 28.6105C256.643 29.4735 257.141 30.2912 257.232 30.9725C257.413 31.4268 257.413 31.9719 257.232 32.6078C257.051 33.2437 256.779 33.8343 256.416 34.3793C256.053 34.9244 255.6 35.3787 255.056 35.6966C254.512 36.0146 253.923 36.1509 253.288 36.1509C252.654 36.1509 252.608 35.9238 251.793 35.4695C250.977 35.0153 249.934 34.3793 248.665 33.5617C246.852 32.3807 244.812 31.3813 242.637 30.4729C240.416 29.6098 238.059 28.9739 235.611 28.5196C233.163 28.0654 230.67 27.8383 228.132 27.8383C220.245 27.8383 213.446 29.3827 207.735 32.4715C202.024 35.5604 197.627 40.0119 194.59 45.8262C191.553 51.6405 189.967 58.6359 189.921 66.8122C190.012 75.2611 191.553 82.4836 194.59 88.4795C197.627 94.4755 201.933 99.1088 207.599 102.288C213.219 105.514 219.928 107.149 227.724 107.149C235.52 107.149 232.846 106.922 235.475 106.468C238.104 106.013 240.687 105.377 243.226 104.56C245.764 103.742 248.166 102.743 250.433 101.562V70.3553H222.013C221.016 70.3553 220.2 70.2644 219.565 69.9919C218.931 69.7648 218.477 69.356 218.205 68.7654C217.933 68.1749 217.797 67.4027 217.797 66.4034C217.797 65.4041 217.933 64.4956 218.205 63.9051C218.477 63.3145 218.885 62.9057 219.52 62.6332C220.109 62.3606 220.88 62.2244 221.877 62.2244H253.424C254.603 62.2244 255.555 62.4515 256.28 62.8149C257.005 63.2237 257.594 63.8142 258.002 64.541C258.41 65.2678 258.637 66.2217 258.637 67.4027V102.834C258.637 103.924 257.957 105.059 256.597 106.24C255.237 107.421 253.243 108.648 250.614 109.92C248.62 110.919 246.353 111.828 243.815 112.645C241.277 113.463 238.602 114.099 235.792 114.598C232.982 115.098 230.126 115.371 227.225 115.371L227.18 115.325Z" fill="black"/>
<path d="M278.717 115.462C277.81 115.462 277.085 115.325 276.541 115.053C275.997 114.78 275.589 114.326 275.408 113.69C275.181 113.054 275.045 112.236 275.045 111.237V54.4114C275.045 53.3212 275.136 52.5036 275.408 51.8677C275.635 51.2772 275.997 50.9138 276.541 50.7321C277.085 50.5504 277.856 50.4595 278.853 50.4595C279.85 50.4595 280.485 50.5504 281.074 50.7321C281.663 50.9138 282.071 51.3226 282.388 51.8677C282.66 52.4582 282.796 53.3212 282.796 54.4114V60.1349C283.703 58.5904 284.609 57.1823 285.516 55.9104C286.422 54.6385 287.51 53.5484 288.779 52.549C290.048 51.5951 291.59 50.8229 293.493 50.3233C295.352 49.7782 297.663 49.5056 300.474 49.5056C303.284 49.5056 303.284 49.6419 304.508 49.9144C305.732 50.187 306.865 50.5504 307.907 51.0046C308.95 51.4589 309.811 51.9585 310.536 52.5036C311.262 53.0487 311.805 53.5938 312.168 54.1389C312.531 54.684 312.712 55.2291 312.712 55.7742C312.712 56.9552 312.213 57.9545 311.216 58.7721C310.219 59.5898 309.312 59.9986 308.497 59.9986C307.681 59.9986 306.729 59.8623 306.23 59.5444C305.732 59.2264 305.233 58.863 304.689 58.3633C304.145 57.9091 303.329 57.5457 302.241 57.2277C301.154 56.9098 299.476 56.7735 297.21 56.7735C294.944 56.7735 294.355 57.0915 292.723 57.682C291.091 58.2725 289.55 59.181 288.054 60.3166C286.558 61.4976 285.289 63.042 284.337 64.9498C283.34 66.8577 282.842 69.1289 282.842 71.7635V111.555C282.842 112.554 282.706 113.372 282.479 113.917C282.252 114.508 281.844 114.916 281.255 115.144C280.666 115.371 279.805 115.507 278.717 115.507V115.462Z" fill="black"/>
<path d="M354.413 115.734C349.427 115.734 344.849 114.916 340.769 113.281C336.645 111.646 333.109 109.329 330.163 106.331C327.217 103.333 324.95 99.7901 323.319 95.7019C321.687 91.6137 320.871 87.0713 320.871 82.0746C320.871 77.078 322.276 70.8549 325.086 66.1307C327.897 61.4066 331.795 57.6818 336.781 54.8656C341.767 52.0947 347.478 50.6865 353.914 50.6865C360.351 50.6865 361.892 51.3225 365.337 52.5943C368.781 53.8662 371.773 55.5923 374.311 57.7727C376.85 59.9531 378.799 62.4514 380.204 65.2677C381.609 68.084 382.289 70.9911 382.289 73.9891C382.289 78.4407 381.292 81.4841 379.207 83.074C377.167 84.6638 374.674 85.436 371.818 85.436H328.984C328.803 90.251 329.982 94.3846 332.611 97.8368C335.194 101.289 338.458 103.969 342.401 105.831C346.345 107.694 350.288 108.602 354.277 108.602C358.266 108.602 359.172 108.466 361.167 108.194C363.116 107.921 364.793 107.558 366.198 107.013C367.603 106.513 368.781 106.013 369.824 105.514C370.821 105.014 371.728 104.514 372.544 104.015C373.359 103.515 374.13 103.106 374.855 102.879C375.309 102.697 375.807 102.652 376.442 102.652C377.031 102.697 377.439 102.97 377.756 103.424C378.209 104.06 378.527 104.65 378.708 105.15C378.889 105.65 378.98 106.24 378.98 106.876C378.98 107.512 377.892 108.829 375.716 110.192C373.541 111.6 370.594 112.872 366.878 114.008C363.161 115.143 359.036 115.734 354.503 115.734H354.413ZM329.03 78.9404H369.552C371.365 78.9404 372.77 78.7132 373.767 78.3044C374.765 77.8956 375.263 76.5783 375.263 74.3071C375.263 72.0359 374.311 68.5836 372.453 66.0399C370.594 63.5416 368.056 61.5429 364.929 59.9985C361.756 58.4541 358.13 57.6818 354.05 57.6818C349.971 57.6818 345.302 58.5903 341.449 60.4073C337.597 62.2243 334.514 64.768 332.293 67.9931C330.027 71.2183 328.939 74.8976 329.03 78.9858V78.9404Z" fill="black"/>
<path d="M424.035 115.734C419.049 115.734 414.471 114.916 410.392 113.281C406.267 111.646 402.731 109.329 399.785 106.331C396.839 103.333 394.572 99.7901 392.941 95.7019C391.309 91.6137 390.493 87.0713 390.493 82.0746C390.493 77.078 391.898 70.8549 394.708 66.1307C397.519 61.4066 401.417 57.6818 406.403 54.8656C411.389 52.0947 417.1 50.6865 423.536 50.6865C429.973 50.6865 431.514 51.3225 434.959 52.5943C438.404 53.8662 441.395 55.5923 443.933 57.7727C446.472 59.9531 448.421 62.4514 449.826 65.2677C451.231 68.084 451.911 70.9911 451.911 73.9891C451.911 78.4407 450.914 81.4841 448.829 83.074C446.789 84.6638 444.296 85.436 441.441 85.436H398.607C398.425 90.251 399.604 94.3846 402.233 97.8368C404.816 101.289 408.08 103.969 412.023 105.831C415.967 107.694 419.91 108.602 423.899 108.602C427.888 108.602 428.794 108.466 430.789 108.194C432.738 107.921 434.415 107.558 435.82 107.013C437.225 106.513 438.404 106.013 439.446 105.514C440.443 105.014 441.35 104.514 442.166 104.015C442.982 103.515 443.752 103.106 444.477 102.879C444.931 102.697 445.429 102.652 446.064 102.652C446.653 102.697 447.061 102.97 447.378 103.424C447.832 104.06 448.149 104.65 448.33 105.15C448.512 105.65 448.602 106.24 448.602 106.876C448.602 107.512 447.514 108.829 445.339 110.192C443.163 111.6 440.217 112.872 436.5 114.008C432.783 115.143 428.658 115.734 424.126 115.734H424.035ZM398.607 78.9404H439.129C440.942 78.9404 442.347 78.7132 443.344 78.3044C444.341 77.8956 444.84 76.5783 444.84 74.3071C444.84 72.0359 443.888 68.5836 442.03 66.0399C440.171 63.5416 437.633 61.5429 434.505 59.9985C431.333 58.4541 427.706 57.6818 423.627 57.6818C419.548 57.6818 414.879 58.5903 411.026 60.4073C407.173 62.2243 404.091 64.768 401.87 67.9931C399.604 71.2183 398.516 74.8976 398.607 78.9858V78.9404Z" fill="black"/>
<path d="M467.821 115.325C466.914 115.325 466.189 115.189 465.645 114.916C465.101 114.644 464.693 114.19 464.512 113.645C464.285 113.054 464.149 112.282 464.149 111.283V54.0481C464.149 53.1396 464.24 52.4582 464.512 51.9131C464.739 51.4135 465.146 51.0501 465.736 50.823C466.325 50.5958 467.05 50.4596 468.002 50.4596C468.954 50.4596 469.181 50.505 469.634 50.6867C470.087 50.8229 470.45 51.0501 470.722 51.2772C470.994 51.5497 471.175 51.9131 471.311 52.3674C471.447 52.8216 471.538 53.3667 471.538 54.0026V62.0427C472.716 60.4983 474.031 59.0447 475.481 57.5912C476.931 56.183 478.563 54.9111 480.286 53.7755C482.053 52.6399 484.002 51.7769 486.133 51.1409C488.263 50.505 490.62 50.187 493.294 50.187C497.193 50.187 500.773 50.8684 504.082 52.1857C507.391 53.503 510.292 55.4108 512.694 57.9091C515.142 60.4075 517.046 63.4509 518.406 67.0394C519.765 70.6279 520.445 74.7161 520.445 79.3493V111.373C520.445 112.373 520.309 113.19 520.083 113.735C519.856 114.326 519.448 114.735 518.95 114.962C518.406 115.189 517.635 115.325 516.638 115.325C515.641 115.325 514.825 115.189 514.281 114.916C513.692 114.644 513.284 114.19 513.057 113.645C512.83 113.054 512.694 112.282 512.694 111.283V79.2585C512.694 74.8069 511.969 70.9459 510.519 67.6753C509.068 64.4048 506.893 61.861 503.992 60.0441C501.091 58.2271 497.419 57.3186 492.977 57.3186C488.535 57.3186 484.864 58.2271 481.691 60.0441C478.518 61.861 476.07 64.4048 474.348 67.6753C472.625 70.9459 471.764 74.8069 471.764 79.2585V111.419C471.764 112.418 471.628 113.236 471.402 113.781C471.175 114.371 470.767 114.78 470.178 115.007C469.588 115.234 468.773 115.371 467.821 115.371V115.325Z" fill="black"/>
<path d="M540.027 115.461C539.029 115.461 538.213 115.325 537.67 115.053C537.08 114.78 536.672 114.326 536.446 113.69C536.219 113.054 536.083 112.236 536.083 111.237V24.4314C536.083 23.523 536.219 22.7962 536.536 22.1602C536.854 21.5697 537.307 21.1155 537.987 20.7975C538.621 20.4795 539.347 20.3433 540.163 20.3433H570.758C575.382 20.3433 579.461 21.0246 583.087 22.2965C586.668 23.6138 589.705 25.567 592.198 28.1562C594.691 30.7454 596.595 33.8797 597.909 37.4682C599.224 41.1021 599.903 45.2357 599.903 49.869C599.903 54.5022 599.224 58.6358 597.909 62.2244C596.595 65.8129 594.645 68.9017 592.107 71.4C589.569 73.8984 586.487 75.897 582.951 77.2143C579.37 78.5316 575.291 79.1676 570.668 79.1676H544.287V111.328C544.287 112.327 544.151 113.145 543.879 113.69C543.607 114.28 543.154 114.689 542.61 115.007C542.021 115.28 541.16 115.416 540.117 115.416L540.027 115.461ZM544.242 71.0366H570.758C575.2 71.0366 579.008 70.219 582.09 68.5383C585.218 66.8576 587.62 64.4047 589.297 61.1796C590.974 57.9545 591.79 54.1389 591.79 49.6873C591.79 45.2357 590.929 41.4201 589.297 38.2858C587.62 35.1515 585.172 32.7441 582.045 31.0634C578.872 29.3827 575.064 28.565 570.622 28.565H544.242V71.0821V71.0366Z" fill="black"/>
<path d="M641.604 116.007C637.072 116.007 632.811 115.144 628.822 113.418C624.833 111.691 621.298 109.329 618.306 106.331C615.269 103.333 612.867 99.8357 611.144 95.8384C609.422 91.841 608.561 87.5712 608.561 83.0287C608.561 78.4863 609.377 74.0802 611.054 70.1283C612.731 66.1764 615.088 62.6787 618.125 59.6353C621.162 56.5919 624.652 54.2298 628.595 52.5491C632.539 50.8684 636.754 50.0508 641.287 50.0508C645.82 50.0508 652.845 51.5044 657.741 54.3661C662.636 57.2278 666.534 61.1343 669.435 66.0855C672.336 71.0368 673.786 76.6239 673.786 82.8925C673.786 89.161 672.925 91.9773 671.293 95.9746C669.616 99.972 667.305 103.47 664.358 106.468C661.412 109.466 657.967 111.828 654.069 113.508C650.171 115.189 646.001 116.007 641.559 116.007H641.604ZM641.332 108.648C645.956 108.648 650.126 107.512 653.933 105.196C657.695 102.879 660.687 99.7448 662.908 95.7929C665.129 91.841 666.262 87.4803 666.262 82.6199C666.262 77.7595 665.174 73.3534 662.999 69.5378C660.823 65.7221 657.831 62.7696 654.069 60.5892C650.307 58.4543 646.001 57.4095 641.242 57.4095C636.482 57.4095 632.267 58.5451 628.55 60.7255C624.788 62.9512 621.796 65.9947 619.575 69.8103C617.354 73.6259 616.221 77.9412 616.221 82.7562C616.221 87.5712 617.309 92.0682 619.575 95.9746C621.796 99.8811 624.788 102.97 628.595 105.241C632.403 107.512 636.664 108.648 641.378 108.648H641.332Z" fill="black"/>
<path d="M706.331 114.78C705.515 114.78 704.835 114.689 704.337 114.508C703.838 114.326 703.475 114.053 703.204 113.599C702.932 113.19 702.705 112.645 702.524 111.873L680.495 55.1836C680.132 54.1843 679.951 53.4121 680.041 52.8216C680.041 52.2311 680.359 51.7314 680.857 51.2317C681.356 50.7775 682.036 50.4141 682.942 50.1415C684.483 49.6873 685.617 49.5965 686.297 49.869C686.976 50.1415 687.566 51.0046 688.11 52.4582L706.467 100.971L723.465 52.867C723.737 52.1402 724.009 51.5497 724.371 51.0955C724.688 50.6412 725.096 50.3232 725.64 50.0961C726.184 49.869 726.864 49.7327 727.68 49.7327C728.496 49.7327 729.266 49.869 729.81 50.0961C730.309 50.3232 730.717 50.6412 731.08 51.05C731.442 51.4588 731.714 52.0039 731.895 52.6399L748.893 101.425L767.25 52.7761C767.885 51.1409 768.565 50.1415 769.381 49.7782C770.151 49.4148 771.285 49.4602 772.871 49.9144C774.14 50.2778 774.956 50.8683 775.319 51.6405C775.681 52.4128 775.545 53.5938 774.911 55.2745L752.882 112.1C752.701 112.736 752.429 113.236 752.157 113.69C751.839 114.099 751.431 114.371 750.933 114.598C750.434 114.78 749.8 114.871 749.12 114.871C748.44 114.871 747.76 114.78 747.261 114.598C746.763 114.417 746.355 114.053 746.037 113.599C745.72 113.099 745.403 112.509 745.131 111.782L727.725 61.3613L710.32 111.782C710.048 112.509 709.731 113.145 709.413 113.599C709.096 114.099 708.688 114.417 708.189 114.598C707.691 114.78 707.056 114.871 706.376 114.871L706.331 114.78Z" fill="black"/>
<path d="M104.208 0.901611H32.5008C14.8273 0.901611 0.5 15.2596 0.5 32.9711V104.832C0.5 122.544 14.8273 136.902 32.5008 136.902H104.208C121.882 136.902 136.209 122.544 136.209 104.832V32.9711C136.209 15.2596 121.882 0.901611 104.208 0.901611Z" fill="black"/>
<path d="M118.078 98.4726C118.078 98.4272 118.078 98.3818 118.078 98.3364C118.078 98.2909 118.078 98.2001 118.033 98.1547C118.033 98.1093 117.987 98.0184 117.942 97.973C117.942 97.9276 117.897 97.8821 117.851 97.8367C117.851 97.7913 117.761 97.7459 117.715 97.7004C117.715 97.7004 117.625 97.6096 117.579 97.5642C117.534 97.5642 117.443 97.4733 117.398 97.4733C117.398 97.4733 117.307 97.4279 117.262 97.3825C98.6781 89.7512 85.1707 79.4399 72.1165 62.9964C69.5329 59.7258 66.7226 55.5014 63.7764 51.0952C55.6628 38.8307 46.4615 24.9763 35.1297 20.5248C26.019 16.9817 18.0868 23.2502 11.1065 28.7465C8.65881 30.6998 6.30181 32.5622 4.03546 33.8795C2.85696 34.5608 1.67846 35.1968 0.545288 35.6964V38.8761C1.36117 38.5127 2.22238 38.1493 3.0836 37.7405C2.22238 38.9215 1.36117 40.148 0.545288 41.4199V47.961C2.40369 47.007 4.30742 46.0986 6.25648 45.3718C7.52564 44.8721 8.84012 44.5087 10.1093 44.2816C9.74666 45.0538 9.38404 45.7806 9.06675 46.5528L8.11489 48.5515C5.80321 53.4573 3.44621 58.4539 0.545288 63.0418V68.5381C0.862577 68.5381 1.17987 68.5381 1.49715 68.629C6.39246 69.4012 10.9252 71.309 15.2765 74.3524C14.2794 75.7606 13.1915 77.1233 12.013 78.3952C8.9761 81.6203 5.39527 83.4372 1.58781 84.8C1.45183 84.7091 1.36117 84.5728 1.22519 84.482C1.17987 84.4366 1.08921 84.3457 1.04388 84.3003C0.907904 84.2095 0.771923 84.1186 0.590615 84.0278V88.2522C0.726596 88.2068 0.907904 88.1614 1.04388 88.1159C1.31585 88.2976 1.58781 88.4793 1.85977 88.661C2.17706 88.8881 2.53967 89.1153 2.90229 89.3424C6.93639 92.7038 10.6079 96.2469 14.098 99.6991C15.2312 100.835 16.4097 101.97 17.5882 103.106C16.9536 103.333 16.3191 103.56 15.6845 103.742C14.1887 104.196 12.6476 104.605 11.1518 105.014C8.56816 105.695 5.84854 106.376 3.2649 107.467C2.76631 107.648 2.31304 107.875 1.85977 108.103C1.45183 107.694 1.04388 107.24 0.635942 106.831C0.726596 108.511 0.953231 110.147 1.27052 111.737C2.04108 112.554 2.85696 113.372 3.62752 114.189C8.34152 119.05 12.8742 123.32 17.3163 127.09C15.7751 128.089 14.2794 129.179 12.8289 130.315C13.6448 130.951 14.4607 131.541 15.3219 132.087C16.727 131.042 18.2228 129.997 19.6733 129.043C23.3901 132.041 27.1069 134.721 30.869 137.129C31.4583 137.129 32.0022 137.174 32.5914 137.174H36.5349C36.3989 137.083 36.2629 136.992 36.1269 136.947C31.4583 134.221 26.8802 131.087 22.2569 127.408C25.4298 125.5 28.648 123.683 31.8209 121.957C33.8153 120.867 35.8096 119.777 37.7587 118.641C42.3821 121.366 47.1414 123.774 51.8554 125.954C47.0054 129.679 42.1101 133.449 37.2148 137.174H42.0194C46.3255 133.904 50.6316 130.588 54.8923 127.317C59.6516 129.407 64.3656 131.314 68.8983 133.131C67.1306 134.494 65.3628 135.811 63.5951 137.174H68.717L70.8927 135.539C70.938 136.084 71.0287 136.629 71.074 137.174H74.0203C73.8843 135.948 73.7483 134.721 73.6123 133.449L85.7599 124.183C86.2132 128.453 86.7118 132.768 87.1651 137.129H93.1029C95.5959 135.13 98.0435 133.131 100.582 131.133C100.582 131.905 100.582 132.677 100.582 133.449C100.582 134.676 100.582 135.902 100.582 137.129H103.483C103.483 135.902 103.483 134.676 103.483 133.449C103.483 131.95 103.483 130.406 103.483 128.861C107.2 126.045 110.962 123.274 114.86 120.594C114.679 122.865 114.497 125.091 114.316 127.317C114.089 130.088 113.863 132.859 113.681 135.675C114.724 135.357 115.721 134.994 116.673 134.585C116.854 132.223 117.036 129.906 117.217 127.59C117.987 118.096 118.849 108.239 118.123 98.6998L118.078 98.4726ZM97.6356 90.478C93.3749 93.7031 89.1141 96.9736 84.8987 100.244C80.638 97.9276 76.4679 95.3384 72.4791 92.4767C71.5273 91.7953 70.5754 91.0685 69.6689 90.2963C73.4763 86.0264 77.4651 81.7565 81.7712 77.9863C86.7571 82.7559 91.9697 86.8895 97.6356 90.478ZM37.3054 92.3858C41.5208 87.2074 44.8297 81.3477 47.9573 75.6243C48.4105 74.8066 48.8638 73.989 49.3171 73.1714C49.4077 73.2622 49.4984 73.3985 49.5437 73.4893C55.0283 80.4847 60.1502 86.0264 65.4081 90.5688C65.2722 90.7051 65.1815 90.8414 65.0455 90.9777C60.8754 95.6563 56.5694 100.517 51.9007 104.787C46.7334 101.607 41.7928 97.6096 36.9428 92.7946C37.0335 92.6583 37.1695 92.5221 37.2601 92.3858H37.3054ZM35.0844 90.5234C35.0844 90.5688 34.9938 90.6143 34.9484 90.6597C32.1382 87.6617 29.3279 84.3912 26.5176 80.7572C26.5176 80.7572 26.5176 80.7572 26.5176 80.7118C24.1606 77.9409 21.7583 75.5334 19.22 73.5348C21.0331 70.673 22.6648 67.7205 24.2513 64.7679L24.3419 64.6316C26.2457 61.0885 27.9681 57.4092 29.5999 53.8207C29.9625 53.003 30.3704 52.14 30.7784 51.3223C30.9597 51.504 31.141 51.6403 31.3223 51.822C36.8975 56.6824 41.4755 62.7692 45.9176 68.5835C46.4615 69.2649 46.9601 69.9917 47.504 70.6731C47.368 70.9002 47.232 71.1727 47.0961 71.3998C46.5975 72.3083 46.0535 73.2622 45.5549 74.1707C42.4274 79.7579 39.2545 85.5267 35.1751 90.478L35.0844 90.5234ZM67.3119 92.9309C67.4478 92.7946 67.5838 92.6129 67.7198 92.4767C68.717 93.2943 69.7595 94.0665 70.7567 94.8387C74.4735 97.5642 78.3716 99.9716 82.3604 102.197C77.7824 105.695 73.2497 109.193 68.7623 112.645C65.4535 111.373 62.1446 110.056 58.9717 108.602C57.4759 107.921 56.0255 107.149 54.575 106.331C59.1077 102.107 63.2778 97.4733 67.3119 92.9309ZM69.7595 64.6316C73.0231 68.7198 76.2866 72.49 79.6861 75.8968C75.2894 79.7579 71.2553 84.0732 67.4025 88.3885C62.2806 83.9369 57.2493 78.5314 51.8554 71.6724C51.5381 71.2636 51.2208 70.8547 50.9035 70.4005C52.5806 67.4934 54.1217 65.0859 55.6628 62.8601C55.9348 62.4513 56.2068 62.0425 56.4787 61.6336C58.3371 58.9082 60.1049 56.319 62.5979 54.4566C65.0908 58.2268 67.4932 61.7245 69.7595 64.6316ZM61.0114 52.0491C58.1105 54.2295 56.0708 57.1821 54.1217 60.0438C53.8498 60.4526 53.5778 60.8614 53.3058 61.2248C51.9007 63.2689 50.5409 65.4038 49.0451 67.9476C48.7732 67.5842 48.4559 67.1754 48.1839 66.812C43.6512 60.8614 38.9825 54.6837 33.1807 49.5962C32.7727 49.2328 32.3648 48.9149 32.0022 48.5969C35.2204 41.8741 38.8466 35.2876 44.1951 30.0184C50.3596 35.969 55.9348 44.2816 61.0568 52.0491H61.0114ZM34.0419 23.0685C36.8068 24.1587 39.4358 25.8848 42.0194 28.0197C36.5802 33.4706 32.8634 40.0572 29.6452 46.7345C24.7045 43.1914 19.7639 41.2382 14.8686 40.9202C18.1775 34.2429 21.9396 27.7018 27.1522 22.478C29.4185 22.0238 31.6849 22.1146 34.0419 23.0231V23.0685ZM5.16864 42.4646C4.21677 42.828 3.31023 43.1914 2.40369 43.6002C5.21396 39.1941 8.38685 35.0151 12.1943 31.472C12.285 31.3811 12.3756 31.2449 12.4663 31.154C12.6023 31.0632 12.6929 30.9723 12.8289 30.8815C15.5485 28.7465 18.2681 26.5662 21.0784 24.9763C17.2256 29.8821 14.2794 35.4239 11.5597 41.0111C9.42937 41.1928 7.299 41.6924 5.16864 42.4646ZM2.22238 65.631C5.53125 60.5889 8.16021 55.0471 10.6985 49.6417L11.6504 47.643C12.2396 46.3711 12.8289 45.0992 13.4635 43.8728C18.3588 43.8728 23.2994 45.7352 28.376 49.5054C27.8774 50.5501 27.4242 51.5949 26.9256 52.6396C25.2938 56.1827 23.6167 59.8167 21.7583 63.2689L21.6676 63.4052C20.1719 66.2215 18.5854 69.0832 16.863 71.8087C12.285 68.5835 7.38966 66.5395 2.26771 65.6764L2.22238 65.631ZM16.0471 97.337C12.4663 93.8394 8.79479 90.2054 4.62471 86.7986C4.62471 86.7986 4.53406 86.7532 4.53406 86.7078C4.48873 86.7078 4.4434 86.6624 4.39808 86.6169C7.84293 85.2088 11.1518 83.301 14.0527 80.2121C15.3219 78.8494 16.5004 77.4412 17.5429 75.9423C19.8546 77.8046 22.0756 80.0304 24.2513 82.6196C27.1522 86.3898 30.0985 89.8421 33.0447 92.9309C29.5092 96.6557 25.3391 99.5628 20.5345 101.698C19.0387 100.244 17.5429 98.836 16.0924 97.3825L16.0471 97.337ZM30.3704 119.141C26.8802 121.094 23.2994 123.047 19.8092 125.227C15.1859 121.366 10.5172 117.006 5.62191 111.964C5.03266 111.373 4.48873 110.783 3.89948 110.147C4.03546 110.101 4.17144 110.01 4.35275 109.965C6.70975 108.966 9.20273 108.33 11.8317 107.648C13.3728 107.24 14.9593 106.831 16.5457 106.331C17.7242 105.968 18.8574 105.559 19.9452 105.105C21.713 106.785 23.5714 108.421 25.5658 110.056C28.6027 112.463 31.7756 114.644 34.9484 116.642C33.4526 117.505 31.9569 118.323 30.4611 119.141H30.3704ZM27.3335 107.739C25.7924 106.467 24.2513 105.15 22.8008 103.787C27.4695 101.561 31.5036 98.6089 35.0391 94.9296C39.7984 99.6537 44.6031 103.56 49.6797 106.785C45.9629 109.874 41.9288 112.509 37.7587 114.962C34.2232 112.781 30.733 110.374 27.3335 107.739ZM54.439 123.683C49.7703 121.594 45.147 119.277 40.6143 116.688C44.6031 114.28 48.4559 111.691 52.0367 108.648C52.1273 108.557 52.218 108.511 52.3087 108.421C54.0764 109.465 55.9348 110.419 57.7932 111.282C60.5128 112.509 63.3231 113.644 66.088 114.735C65.8614 114.916 65.5894 115.098 65.3628 115.28C61.7367 118.05 58.1105 120.867 54.439 123.683ZM71.5273 130.815C66.8586 128.952 62.1446 127.09 57.4306 125.046C60.6488 122.547 63.9123 120.049 67.0852 117.596C67.8105 117.051 68.4904 116.506 69.2156 115.961C70.6661 116.506 72.1618 117.097 73.6123 117.642C76.9665 118.914 80.366 120.185 83.7202 121.548C79.6408 124.637 75.5614 127.726 71.4819 130.815H71.5273ZM74.6548 114.871C73.7483 114.553 72.8418 114.189 71.9352 113.826C76.2866 110.465 80.7286 107.058 85.1254 103.651C89.658 106.013 94.2361 108.148 98.7234 110.147C94.5987 113.236 90.5193 116.324 86.4398 119.459C82.5417 117.823 78.5076 116.324 74.6548 114.871ZM89.8847 135.72C89.3861 131.042 88.8875 126.454 88.3889 121.912L100.174 112.963C100.446 117.687 100.537 122.502 100.537 127.272C96.9104 130.042 93.3749 132.904 89.8847 135.766V135.72ZM87.709 101.743C91.8791 98.5181 96.0945 95.293 100.31 92.1133C104.525 94.6116 108.967 96.8828 113.727 98.9723C109.602 102.061 105.522 105.105 101.443 108.193C96.9104 106.195 92.287 104.105 87.709 101.743ZM115.086 116.688C111.098 119.368 107.245 122.139 103.437 125C103.437 120.276 103.256 115.507 102.939 110.828L115.358 101.38C115.585 106.422 115.404 111.555 115.086 116.688Z" fill="white"/>
</g>
<defs>
<clipPath id="clip0_36_274">
<rect width="775" height="136" fill="white" transform="translate(0.5 0.901611)"/>
</clipPath>
</defs>
</svg>
